# xmcd CD database file
#
# Track frame offsets:
#	150
#	13038
#	24839
#	36307
#	47733
#	59196
#	74181
#	86741
#	100354
#	113895
#	127598
#	139102
#	147222
#	156882
#	168677
#	180519
#	194038
#	206951
#	221063
#	231401
#
# Disc length: 3229 seconds
#
# Revision: 1
# Processed by: cddbd v1.5.2PL0 Copyright (c) Steve Scherf et al.
# Submitted via: CDex 1.70beta2
#
DISCID=3a0c9b14
DTITLE=CJ-SS - Country Legends - Signature Series - D2
DYEAR=1900
DGENRE=Country
TTITLE0=Memories Are Made of This - Hank Snow
TTITLE1=Sixteen Tonnes - Tennessee Ernie Ford
TTITLE2=It Wasn't God Who Make Honky-Tonk angles - Kitty Wells
TTITLE3=Young Love - Sonny James
TTITLE4=Slowly - Webb Pierce
TTITLE5=There's Gold In Them Thar Hills - Frankie Marvin
TTITLE6=Singing The Blues - Hank snow
TTITLE7=I Forgot More Than You'll Ever Know - The Davies Sisters
TTITLE8=If You've Got the Money I've Got the Time - Lefty Frizzel
TTITLE9=Goin' Back To My Texas Home - Bill Boyd
TTITLE10=Crazy Arms - Ray Price
TTITLE11=Wreck of the Old 97 - Johnny Cash
TTITLE12=I Don't Believe You Met My Baby - The Louvin Brothers
TTITLE13=I've Forgotten You - Hank Snow
TTITLE14=Doin' My Time - Johnny Cash
TTITLE15=Home On the Range - Rex Allen
TTITLE16=Four Walls - Jim Reeves
TTITLE17=Sleepy Time In Caroline - Eddie Dean
TTITLE18=Why, Baby, Why - George Jones
TTITLE19=Rock Island Line - Johnny Cash
EXTD=
EXTT0=
EXTT1=
EXTT2=
EXTT3=
EXTT4=
EXTT5=
EXTT6=
EXTT7=
EXTT8=
EXTT9=
EXTT10=
EXTT11=
EXTT12=
EXTT13=
EXTT14=
EXTT15=
EXTT16=
EXTT17=
EXTT18=
EXTT19=
PLAYORDER=
